<svg width="20" height="20" viewBox="0 0 20 20" fill="none" xmlns="http://www.w3.org/2000/svg">
<path d="M19 10C19 14.9706 14.9706 19 10 19C5.02944 19 1 14.9706 1 10C1 5.02944 5.02944 1 10 1C14.9706 1 19 5.02944 19 10Z" stroke="#323232" stroke-width="1.5" stroke-linecap="round" stroke-linejoin="round"/>
<path fill-rule="evenodd" clip-rule="evenodd" d="M10.0005 9.875C10.0695 9.87526 10.1252 9.93135 10.125 10.0003C10.1248 10.0693 10.0688 10.1251 9.99984 10.125C9.93087 10.1249 9.875 10.069 9.875 10C9.87482 9.96671 9.888 9.93474 9.91158 9.91125C9.93517 9.88775 9.96719 9.87469 10.0005 9.875Z" stroke="#323232" stroke-width="1.5" stroke-linecap="round" stroke-linejoin="round"/>
<path fill-rule="evenodd" clip-rule="evenodd" d="M14.001 9.75C14.1389 9.75055 14.2504 9.86272 14.25 10.0007C14.2496 10.1386 14.1376 10.2502 13.9997 10.25C13.8617 10.2498 13.75 10.1379 13.75 10C13.7496 9.93341 13.776 9.86947 13.8232 9.82248C13.8704 9.77549 13.9344 9.74938 14.001 9.75Z" stroke="#323232" stroke-width="1.5" stroke-linecap="round" stroke-linejoin="round"/>
<path fill-rule="evenodd" clip-rule="evenodd" d="M6 9.995L6.005 10L6 10.005L5.995 10L6 9.995Z" stroke="#323232" stroke-width="1.5" stroke-linecap="round" stroke-linejoin="round"/>
</svg>
