<svg width="19" height="21" viewBox="0 0 19 21" fill="none" xmlns="http://www.w3.org/2000/svg">
<path d="M6.50897 17.0025V17.5147C6.50897 18.1752 6.77148 18.8086 7.2387 19.2754C7.70592 19.7423 8.33953 20.0043 9.00001 20.0037C9.66058 20.004 10.2942 19.7418 10.7614 19.2748C11.2286 18.8078 11.491 18.1743 11.491 17.5137V17.0025M14.9495 17.0025C16.0838 17.0025 17.0033 16.083 17.0033 14.9486C17.0029 14.3724 16.7741 13.8199 16.3671 13.412L15.0025 12.0484V7.99875C15.0025 4.68366 12.3151 1.99625 9.00001 1.99625C5.68492 1.99625 2.99751 4.68366 2.99751 7.99875V12.0484L1.63294 13.412C1.22592 13.8199 0.997135 14.3724 0.996674 14.9486C0.996674 15.4934 1.21306 16.0158 1.59823 16.4009C1.98341 16.7861 2.50581 17.0025 3.05053 17.0025H14.9495Z" stroke="#323232" stroke-width="1.5" stroke-linecap="round" stroke-linejoin="round"/>
<circle cx="14" cy="5" r="4" fill="#FF3636" stroke="white" stroke-width="2"/>
</svg>
