<svg width="20" height="20" viewBox="0 0 20 20" fill="none" xmlns="http://www.w3.org/2000/svg">
<path d="M12.803 8.602L9.302 12.103L7.199 10.002M1.495 11.465L2.69 13.029L2.948 14.976C3.091 16.056 3.94 16.906 5.02 17.05L6.972 17.311L8.535 18.505C9.4 19.166 10.599 19.166 11.464 18.505L13.028 17.31H13.026L14.974 17.052C16.054 16.909 16.904 16.06 17.048 14.98L17.308 13.028C17.308 13.029 17.912 12.238 18.503 11.465C19.164 10.6 19.163 9.401 18.503 8.536L17.31 6.971L17.052 5.024C16.909 3.944 16.06 3.094 14.98 2.95L13.027 2.69L11.464 1.496C10.599 0.835 9.4 0.835 8.535 1.496L6.971 2.69H6.973L5.025 2.949C3.945 3.092 3.095 3.941 2.951 5.021L2.69 6.973C2.69 6.972 2.086 7.763 1.495 8.536C0.835 9.4 0.835 10.6 1.495 11.465Z" stroke="#323232" stroke-width="1.5" stroke-linecap="round" stroke-linejoin="round"/>
</svg>
